<?xml version="1.0" standalone="no"?>
<!DOCTYPE svg PUBLIC "-//W3C//DTD SVG 20010904//EN"
 "http://www.w3.org/TR/2001/REC-SVG-20010904/DTD/svg10.dtd">
<svg version="1.0" xmlns="http://www.w3.org/2000/svg"
 width="600.000000pt" height="600.000000pt" viewBox="0 0 600.000000 600.000000"
 preserveAspectRatio="xMidYMid meet">
<metadata>
Created by potrace 1.11, written by Peter Selinger 2001-2013
</metadata>
<g transform="translate(0.000000,600.000000) scale(0.100000,-0.100000)"
fill="#000000" stroke="none">
<path d="M2795 5059 c-796 -84 -1468 -608 -1742 -1359 -47 -129 -95 -333 -95
-400 0 -30 0 -81 0 -114 1 -38 -4 -64 -14 -73 -10 -11 -14 -41 -14 -119 0
-438 150 -884 417 -1242 72 -97 255 -285 353 -365 109 -88 239 -171 370 -237
114 -57 346 -150 374 -150 8 0 17 -9 21 -20 31 -99 725 -205 1051 -159 147 20
254 81 254 143 0 28 -39 76 -62 76 -7 0 42 25 110 55 742 328 1221 1028 1249
1825 5 146 4 170 -12 200 -14 28 -16 48 -11 112 12 147 -71 449 -190 687 -65
129 -142 256 -150 248 -3 -3 14 -33 36 -68 64 -97 174 -331 215 -454 20 -60
47 -168 62 -238 25 -128 25 -128 7 -170 -28 -62 -134 -169 -226 -228 -75 -48
-272 -149 -292 -149 -12 0 1 313 20 498 27 268 90 582 152 767 l21 60 -56 75
c-76 101 -288 311 -395 391 -421 313 -948 461 -1453 408z m-109 -155 c17 -2
41 -14 53 -25 33 -31 22 -67 -48 -155 -81 -100 -122 -176 -206 -383 -86 -211
-105 -249 -160 -321 -176 -228 -433 -377 -613 -356 -119 14 -216 86 -242 181
-36 127 41 322 219 559 112 148 240 267 378 350 219 131 420 180 619 150z
m993 -351 c34 -159 63 -296 64 -306 2 -15 -23 -26 -141 -63 -208 -65 -432
-155 -432 -174 0 -4 56 -103 125 -221 69 -118 125 -216 125 -219 0 -10 -161
-111 -280 -176 -63 -35 -178 -91 -255 -125 -140 -61 -463 -174 -472 -165 -7 7
-133 348 -133 360 0 6 58 38 128 71 110 52 224 120 285 169 22 17 31 -1 -121
255 l-116 195 110 105 c283 272 619 467 969 561 38 10 72 19 75 19 3 1 34
-128 69 -286z m-2325 -523 c68 -245 112 -502 136 -795 12 -147 13 -375 2 -375
-5 0 -66 29 -138 64 -186 93 -302 186 -368 298 -26 45 -27 48 -15 115 29 176
89 369 165 532 55 117 166 303 176 293 3 -4 22 -63 42 -132z m-353 -856 c20
-39 124 -131 209 -187 91 -59 182 -104 355 -173 l130 -52 3 -42 3 -42 -33 7
c-60 13 -282 97 -363 137 -105 53 -228 135 -290 195 l-51 48 4 68 c2 37 7 67
11 67 4 0 14 -12 22 -26z m4044 -405 c-27 -233 -90 -453 -191 -664 -40 -84
-135 -249 -154 -269 -11 -11 -75 187 -111 346 -28 126 -62 339 -74 474 l-7 71
49 18 c151 57 348 175 443 267 l55 53 3 -80 c2 -44 -4 -141 -13 -216z m-4045
245 c85 -86 294 -213 443 -269 44 -17 47 -20 47 -54 0 -68 -30 -285 -60 -431
-26 -127 -101 -397 -117 -423 -9 -15 -89 114 -159 258 -74 150 -145 358 -174
513 -32 174 -52 452 -32 452 4 0 28 -20 52 -46z m2160 -131 c82 -38 145 -100
184 -183 28 -59 31 -74 31 -160 0 -82 -4 -103 -27 -152 -37 -80 -107 -152
-187 -191 -60 -29 -74 -32 -161 -32 -82 0 -103 4 -152 27 -80 37 -152 107
-191 187 -29 60 -32 74 -32 161 0 82 4 103 27 152 47 100 137 180 241 214 72
23 191 13 267 -23z m-1540 -199 c191 -63 482 -130 695 -159 66 -9 129 -18 140
-20 16 -3 24 -19 38 -77 25 -106 63 -174 142 -254 104 -104 223 -154 370 -154
141 0 256 49 361 154 79 80 124 161 145 264 10 50 17 64 34 67 11 2 74 11 139
20 225 30 491 91 702 160 58 19 108 35 110 35 2 0 4 -20 4 -44 0 -61 26 -258
51 -386 24 -126 48 -217 97 -367 l36 -111 -56 -74 c-258 -343 -666 -615 -1090
-727 -165 -44 -283 -61 -463 -68 -482 -18 -928 123 -1318 415 -119 89 -297
264 -381 374 l-59 78 31 92 c79 242 152 606 152 763 0 47 7 58 29 50 9 -4 50
-18 91 -31z"/>
<path d="M2882 2774 c-93 -46 -142 -127 -142 -234 0 -153 110 -264 260 -263
76 0 122 17 178 67 81 73 107 200 62 304 -57 133 -225 192 -358 126z m224 -8
c229 -107 172 -447 -80 -473 -146 -15 -276 101 -276 246 1 184 189 305 356
227z"/>
</g>
</svg>
